<?xml version="1.0" encoding="utf-8"?>
<!-- Generator: Adobe Illustrator 19.0.0, SVG Export Plug-In . SVG Version: 6.00 Build 0)  -->
<svg version="1.1" id="Layer_1" xmlns="http://www.w3.org/2000/svg" xmlns:xlink="http://www.w3.org/1999/xlink" x="0px" y="0px"
	 viewBox="0 0 512 512" style="enable-background:new 0 0 512 512;" fill="#ffffff" xml:space="preserve">
<g id="XMLID_1_">
	<polygon id="XMLID_3_" points="8.2,39.9 8.2,48.1 496.5,48.1 496.5,463.9 15.5,463.9 15.5,39.9 8.2,39.9 8.2,48.1 8.2,39.9 0,39.9 
		0,480.2 512,480.2 512,31.8 0,31.8 0,39.9 	"/>
	<polygon id="XMLID_4_" points="88.1,88.1 88.1,96.2 448.4,96.2 448.4,415.8 96.2,415.8 96.2,88.1 88.1,88.1 88.1,96.2 88.1,88.1 
		79.9,88.1 79.9,432.1 463.9,432.1 463.9,79.9 79.9,79.9 79.9,88.1 	"/>
	<polyline id="XMLID_5_" points="48.1,144.3 96.2,144.3 96.2,128 48.1,128 	"/>
	<polyline id="XMLID_6_" points="48.1,224.2 96.2,224.2 96.2,207.9 48.1,207.9 	"/>
	<polyline id="XMLID_7_" points="48.1,304.1 96.2,304.1 96.2,287.8 48.1,287.8 	"/>
	<polyline id="XMLID_8_" points="48.1,384 96.2,384 96.2,368.5 48.1,368.5 	"/>
	<path id="XMLID_9_" d="M352.2,232.4v8.2c9,0,16.3,7.3,16.3,16.3s-7.3,16.3-16.3,16.3s-16.3-7.3-16.3-16.3s7.3-16.3,16.3-16.3V232.4
		v-8.2c-17.9,0-31.8,14.7-31.8,31.8c0,17.9,14.7,31.8,31.8,31.8c17.9,0,31.8-14.7,31.8-31.8c0-17.9-14.7-31.8-31.8-31.8V232.4z"/>
	<path id="XMLID_10_" d="M352.2,184.3v8.2c17.9,0,33.4,7.3,45.7,18.8c11.4,11.4,18.8,27.7,18.8,45.7c0,17.9-7.3,33.4-18.8,45.7
		c-11.4,11.4-27.7,18.8-45.7,18.8c-17.9,0-33.4-7.3-45.7-18.8c-11.4-11.4-18.8-27.7-18.8-45.7c0-17.9,7.3-33.4,18.8-45.7
		c11.4-11.4,27.7-18.8,45.7-18.8L352.2,184.3l0-8.2c-44,0-79.9,35.9-79.9,79.9s35.9,79.9,79.9,79.9c44,0,79.9-35.9,79.9-79.9
		s-35.9-79.9-79.9-79.9C352.2,176.1,352.2,184.3,352.2,184.3z"/>
	<polyline id="XMLID_11_" points="279.6,264.2 327.7,264.2 327.7,247.8 279.6,247.8 	"/>
	<polyline id="XMLID_12_" points="360.4,232.4 360.4,184.3 344.1,184.3 344.1,232.4 	"/>
	<polyline id="XMLID_13_" points="375.8,264.2 423.9,264.2 423.9,247.8 375.8,247.8 	"/>
	<polyline id="XMLID_14_" points="344.1,279.6 344.1,327.7 360.4,327.7 360.4,279.6 	"/>
	<polyline id="XMLID_15_" points="362.8,278 394.6,309.8 406,298.4 373.4,266.6 	"/>
	<polyline id="XMLID_16_" points="373.4,245.4 406,213.6 394.6,202.2 362.8,234 	"/>
	<polyline id="XMLID_17_" points="341.6,234 309.8,202.2 298.4,213.6 330.2,245.4 	"/>
	<polyline id="XMLID_18_" points="330.2,266.6 298.4,298.4 309.8,309.8 341.6,278 	"/>
</g>
</svg>
