<?xml version="1.0" encoding="UTF-8"?>
<!-- Generator: Adobe Illustrator 19.0.0, SVG Export Plug-In . SVG Version: 6.00 Build 0)  -->
<svg version="1.1" id="Layer_1" xmlns="http://www.w3.org/2000/svg" xmlns:xlink="http://www.w3.org/1999/xlink" x="0px" y="0px" viewBox="0 0 512 512" style="enable-background:new 0 0 512 512;" xml:space="preserve">
<g id="XMLID_1_">
	<polygon id="XMLID_3_" points="7.9,55.9 7.9,63.8 496.2,63.8 496.2,448.2 15.8,448.2 15.8,55.9 7.9,55.9 7.9,63.8 7.9,55.9 0,55.9    0,464 512,464 512,48 0,48 0,55.9  "/>
	<polyline id="XMLID_4_" points="7.9,128.4 504.1,128.4 504.1,111.9 7.9,111.9  "/>
	<polyline id="XMLID_5_" points="80.3,80.3 48,80.3 48,96.1 80.3,96.1  "/>
	<polyline id="XMLID_6_" points="144.1,80.3 111.9,80.3 111.9,96.1 144.1,96.1  "/>
	<polyline id="XMLID_7_" points="208,80.3 175.7,80.3 175.7,96.1 208,96.1  "/>
	<polyline id="XMLID_8_" points="48,208 263.9,208 263.9,192.2 48,192.2  "/>
	<polyline id="XMLID_9_" points="48,271.8 263.9,271.8 263.9,256 48,256  "/>
	<polyline id="XMLID_10_" points="48,336.3 263.9,336.3 263.9,319.8 48,319.8  "/>
	<polygon id="XMLID_11_" points="304,200.1 304,208 448.2,208 448.2,319.8 311.9,319.8 311.9,200.1 304,200.1 304,208 304,200.1    296.2,200.1 296.2,336.3 464,336.3 464,192.2 296.2,192.2 296.2,200.1  "/>
</g>
</svg>